<svg width="23" height="23" viewBox="0 0 23 23" fill="none" xmlns="http://www.w3.org/2000/svg">
<path d="M18.3268 3.58765H4.51285C3.85112 3.58765 3.31604 4.11006 3.31604 4.75596V18.6269C3.31604 19.2728 3.85112 19.7984 4.51285 19.7984H18.3268C18.9885 19.7984 19.5268 19.2728 19.5268 18.6301V4.75596C19.5268 4.11006 18.9885 3.58765 18.3268 3.58765ZM8.12543 17.4016H5.71915V9.6635H8.12543V17.4016ZM6.92229 8.60917C6.14975 8.60917 5.52602 7.98544 5.52602 7.21606C5.52602 6.44668 6.14975 5.82295 6.92229 5.82295C7.69167 5.82295 8.3154 6.44668 8.3154 7.21606C8.3154 7.98227 7.69167 8.60917 6.92229 8.60917ZM17.13 17.4016H14.7269V13.6402C14.7269 12.7442 14.711 11.5885 13.4762 11.5885C12.2256 11.5885 12.0356 12.5669 12.0356 13.5769V17.4016H9.63569V9.6635H11.9406V10.721H11.9723C12.2921 10.1131 13.0773 9.47036 14.2456 9.47036C16.6804 9.47036 17.13 11.0724 17.13 13.1558V17.4016Z" fill="#FEF500"/>
</svg>
