<svg width="22" height="23" viewBox="0 0 22 23" fill="none" xmlns="http://www.w3.org/2000/svg">
<path fill-rule="evenodd" clip-rule="evenodd" d="M18.2003 5.98051C18.9559 6.18251 19.551 6.77757 19.7529 7.53325C20.1198 8.9029 20.1198 11.7603 20.1198 11.7603C20.1198 11.7603 20.1198 14.6178 19.7529 15.9874C19.551 16.7431 18.9559 17.3381 18.2003 17.5402C16.8306 17.9072 11.339 17.9072 11.339 17.9072C11.339 17.9072 5.8472 17.9072 4.47776 17.5402C3.72214 17.3381 3.12708 16.7431 2.92514 15.9874C2.55823 14.6178 2.55823 11.7603 2.55823 11.7603C2.55823 11.7603 2.55823 8.9029 2.92514 7.53325C3.12708 6.77785 3.72214 6.18279 4.47776 5.98078C5.84748 5.61377 11.339 5.61377 11.339 5.61377C11.339 5.61377 16.8306 5.61377 18.2003 5.98051ZM14.132 11.7595L9.54229 9.16524V14.3538L14.132 11.7595Z" fill="#FEF500"/>
</svg>
